<svg width="152" height="152" viewBox="0 0 152 152" fill="none" xmlns="http://www.w3.org/2000/svg">
<path d="M151.551 75.7756C151.551 117.625 117.625 151.551 75.7756 151.551C33.9259 151.551 0 117.625 0 75.7756C0 33.9259 33.9259 0 75.7756 0C117.625 0 151.551 33.9259 151.551 75.7756Z" fill="#F2F3F5"/>
<path d="M42.8559 105.494L39.4917 105.45C39.6446 106.128 39.6665 107.067 39.6665 107.657C39.6665 108.989 39.6883 111.567 39.9068 113.577C40.5184 119.431 42.5937 121.572 45.0185 121.572C46.7662 121.572 48.1206 120.261 49.5842 116.439L47.3778 113.795C46.9628 115.521 46.1108 118.099 45.0622 118.099C43.686 118.099 43.0306 115.936 42.7248 112.79C42.5937 111.196 42.5937 109.579 42.5937 108.159C42.5937 107.548 42.7029 106.259 42.8559 105.494ZM53.7785 105.975L51.0041 106.892C53.3853 109.601 54.5649 114.888 54.8926 118.426L57.7761 117.291C57.5358 113.948 55.8538 108.487 53.7785 105.975Z" fill="#F3549F"/>
<path d="M64.7011 105.494L61.3369 105.45C61.4898 106.128 61.5117 107.067 61.5117 107.657C61.5117 108.989 61.5335 111.567 61.752 113.577C62.3636 119.431 64.4389 121.572 66.8637 121.572C68.6114 121.572 69.9658 120.261 71.4294 116.439L69.223 113.795C68.808 115.521 67.956 118.099 66.9074 118.099C65.5312 118.099 64.8758 115.936 64.57 112.79C64.4389 111.196 64.4389 109.579 64.4389 108.159C64.4389 107.548 64.5482 106.259 64.7011 105.494ZM75.6237 105.975L72.8493 106.892C75.2305 109.601 76.4101 114.888 76.7378 118.426L79.6213 117.291C79.3811 113.948 77.699 108.487 75.6237 105.975Z" fill="#F3549F"/>
<path d="M101.008 120.72L102.45 118.47C100.156 116.002 97.8184 114.735 95.1096 114.735C92.4663 114.735 90.7842 116.198 90.7842 118.142C90.7842 120.611 92.6629 121.681 95.1096 121.681C99.282 121.681 100.418 118.077 100.418 112.943C100.418 108.968 98.583 106.368 95.481 106.368C92.7066 106.368 89.7575 108.836 87.9881 110.562L87.9662 113.817C89.7794 111.589 92.6629 108.858 94.9785 108.858C96.6825 108.858 97.731 110.431 97.731 112.747C97.731 116.417 97.0757 119.235 94.913 119.235C93.9736 119.235 93.1654 118.907 93.1654 118.033C93.1654 117.312 93.9736 116.919 94.8911 116.919C97.032 116.919 99.151 118.514 101.008 120.72ZM87.0924 109.557L86.9176 109.951L86.874 110.519C85.7817 112.222 83.1603 115.696 81.784 117.4L83.4879 119.803C84.6457 118.208 86.59 115.281 87.5512 113.883L88.8182 109.776C89.1895 109.208 89.8668 108.137 90.2381 107.635L89.3643 106.499C88.3813 106.827 85.5851 107.242 84.2088 107.329C83.4224 107.351 82.92 107.373 82.3083 107.351L82.5923 110.147C84.0341 109.951 86.1094 109.667 87.0924 109.557ZM86.8303 105.341C86.8303 106.215 86.3497 112.332 86.2841 114.276C86.2186 117.007 86.1968 118.47 86.1749 120.589C86.1749 120.939 86.1531 121.747 86.1094 122.206H89.1022C89.0585 121.725 88.9711 120.917 88.9492 120.524C88.8182 118.492 88.8182 116.635 88.8182 114.866C88.8182 110.955 89.5391 105.232 89.9104 103.484L86.7429 103.397C86.8521 104.074 86.8303 104.73 86.8303 105.341Z" fill="#F3549F"/>
<path d="M112.52 115.477H114.77L115.338 108.006L115.447 104.751H111.843L111.952 108.006L112.52 115.477ZM113.656 121.31C114.748 121.31 115.579 120.502 115.579 119.366C115.579 118.23 114.748 117.443 113.656 117.443C112.542 117.443 111.712 118.23 111.712 119.366C111.712 120.502 112.52 121.31 113.656 121.31Z" fill="#F3549F"/>
<path d="M45.3899 56.4244C45.3899 75.4103 65.5853 89.6878 76.1097 94.4534C86.0652 89.5925 106.83 76.1537 106.83 56.4244C106.83 49.848 104.838 39.8403 90.9007 39.8403C81.7986 39.8403 77.5319 48.8948 76.1097 52.1354L76.1034 52.1083C75.3396 48.8447 73.2322 39.8403 61.3187 39.8403C50.3961 39.8403 45.6743 50.8964 45.3899 56.4244Z" fill="#F3549F"/>
</svg>
