<svg width="129" height="119" viewBox="0 0 129 119" fill="none" xmlns="http://www.w3.org/2000/svg">
<path d="M69.1989 83.8658C56.6117 96.4772 35.0603 87.5745 35.0432 69.7564L35.0195 45.0892C35.0089 34.0435 43.9546 25.0806 55.0003 25.07L79.6675 25.0463C97.4856 25.0292 106.43 46.5635 93.8424 59.1749L69.1989 83.8658Z" fill="white"/>
<path d="M87.8056 34.6473C85.2681 32.3194 82.0243 30.8967 78.5843 30.8967H29.4167V11.2385H78.5843C86.1968 11.2385 93.5347 13.851 99.3683 18.7138L87.8056 34.6473V34.6473Z" fill="url(#paint0_linear_838_2831)"/>
<path d="M23.6878 22.7365H7.23321C3.25691 22.7365 0 19.5162 0 15.5846C0 11.6529 3.25691 8.43262 7.23321 8.43262H33.6286C39.2268 8.43262 43.5693 12.7264 43.5693 18.2617V71.3518C43.5693 74.7532 45.0212 77.9605 47.3625 80.4695C49.8869 82.7975 53.1438 84.2201 56.5839 84.2201C63.8171 84.2201 69.5984 78.3227 69.5984 71.3518V66.3467C69.5984 60.9795 74.1241 56.5176 79.5392 56.5176C84.9543 56.5176 89.48 60.9924 89.48 66.3467V71.3518C89.48 89.2252 74.8435 103.878 56.5839 103.878C47.9119 103.878 39.593 100.477 33.4454 94.2303C27.1147 88.1518 23.6878 79.9264 23.6878 71.3518V22.7365V22.7365Z" fill="url(#paint1_linear_838_2831)"/>
<path d="M78.5842 76.2922C96.6607 76.2922 111.48 61.8201 111.48 43.7656C111.48 35.191 108.04 26.9656 101.723 20.8871C100.964 20.1241 100.179 19.3998 99.3683 18.7144L87.8056 34.6478C90.16 37.1439 91.5988 40.3642 91.5988 43.7656C91.5988 50.9176 85.6343 56.634 78.5842 56.634V76.2922V76.2922Z" fill="#F284B2"/>
<path d="M99.0802 34.8156C90.0027 34.8156 82.6125 27.5084 82.6125 18.5329C82.6125 9.5574 90.0027 2.25024 99.0802 2.25024C108.158 2.25024 115.548 9.5574 115.548 18.5329C115.548 27.5084 108.158 34.8156 99.0802 34.8156Z" fill="#A9DDE4"/>
<path d="M99.0806 4.50069C106.942 4.50069 113.272 10.7603 113.272 18.533C113.272 26.3058 106.942 32.5653 99.0806 32.5653C91.2196 32.5653 84.8889 26.3058 84.8889 18.533C84.8889 10.7603 91.2196 4.50069 99.0806 4.50069M99.0806 0C88.7474 0 80.337 8.31593 80.337 18.533C80.337 28.7501 88.7474 37.066 99.0806 37.066C109.414 37.066 117.824 28.7501 117.824 18.533C117.824 8.31593 109.414 0 99.0806 0V0Z" fill="white"/>
<path d="M99.081 22.5423C101.32 22.5423 103.136 20.7473 103.136 18.533C103.136 16.3188 101.32 14.5238 99.081 14.5238C96.8416 14.5238 95.0262 16.3188 95.0262 18.533C95.0262 20.7473 96.8416 22.5423 99.081 22.5423Z" fill="white"/>
<defs>
<linearGradient id="paint0_linear_838_2831" x1="29.4167" y1="22.9429" x2="99.3683" y2="22.9429" gradientUnits="userSpaceOnUse">
<stop stop-color="white"/>
<stop offset="0.07" stop-color="#F7FBFD"/>
<stop offset="0.17" stop-color="#E1F3F8"/>
<stop offset="0.29" stop-color="#BDE6F1"/>
<stop offset="0.33" stop-color="#B3E2EF"/>
<stop offset="0.63" stop-color="#A9DDE4"/>
<stop offset="0.66" stop-color="#ADD7E1"/>
<stop offset="0.75" stop-color="#B5CFDC"/>
<stop offset="0.76" stop-color="#B8CAD9"/>
<stop offset="0.82" stop-color="#D1ABC8"/>
<stop offset="0.89" stop-color="#E395BB"/>
<stop offset="0.95" stop-color="#EE88B4"/>
<stop offset="1" stop-color="#F284B2"/>
</linearGradient>
<linearGradient id="paint1_linear_838_2831" x1="0" y1="56.1555" x2="89.48" y2="56.1555" gradientUnits="userSpaceOnUse">
<stop stop-color="white"/>
<stop offset="0.82" stop-color="#F284B2"/>
</linearGradient>
</defs>
</svg>
