<svg width="607" height="341" viewBox="0 0 607 341" fill="none" xmlns="http://www.w3.org/2000/svg">
<path d="M170.139 311.406L87.3551 228.622C67.35 208.617 34.7625 208.433 14.9821 228.213C-4.79829 247.994 -4.61422 280.581 15.3909 300.586L148.188 433.383C176.353 461.549 219.803 461.794 247.652 433.945L514.752 166.845C531.865 149.732 555.306 140.9 579.709 140.056C604.121 141.045 627.664 150.273 644.971 167.58C681.362 203.971 680.778 262.728 645.707 297.799L620.526 322.98C593.523 349.983 593.844 395.2 621.088 422.444C648.332 449.688 693.614 449.944 720.552 423.006L745.733 397.825C835.655 307.902 835.739 160.544 743.874 68.6782C700.244 25.0486 641.278 0.308388 578.922 0.806878C516.49 -0.461892 457.866 23.6796 414.727 66.8191L170.139 311.406Z" fill="url(#paint0_linear_843_3471)"/>
<defs>
<linearGradient id="paint0_linear_843_3471" x1="219.098" y1="24.0976" x2="669.279" y2="474.279" gradientUnits="userSpaceOnUse">
<stop stop-color="white"/>
<stop offset="0.82" stop-color="#F284B2"/>
</linearGradient>
</defs>
</svg>