<svg width="127" height="21" viewBox="0 0 127 21" fill="none" xmlns="http://www.w3.org/2000/svg">
<path d="M116.53 7.91086H114.34C113.81 7.91086 113.38 7.43086 113.38 6.77086C113.38 6.11086 113.81 5.63086 114.34 5.63086H116.96C117.26 5.63086 117.51 5.63086 117.85 5.63086C118.59 5.63086 119.17 6.21086 119.17 6.95086V12.0809C119.17 12.5409 119.36 12.9709 119.67 13.3109C120.01 13.6209 120.44 13.8109 120.9 13.8109C121.86 13.8109 121.88 13.1309 121.88 12.2009L121.9 11.7609C121.9 11.0409 122.25 10.3209 122.97 10.3209C123.69 10.3209 124.29 10.9209 124.29 11.6409L124.27 12.0809C124.27 14.4809 123.32 16.4509 120.9 16.4509C119.75 16.4509 118.64 15.9909 117.83 15.1509C116.99 14.3309 116.53 13.2309 116.53 12.0809V7.91086Z" fill="#333333"/>
<path d="M125.38 8.07031C126.05 8.07031 126.6 8.60031 126.6 9.29031C126.6 11.1803 125.06 12.7203 123.17 12.7203C122.5 12.7203 121.95 12.1603 121.95 11.5003C121.95 10.8403 122.51 10.2803 123.17 10.2803C123.7 10.2803 124.15 9.84032 124.15 9.30032C124.15 8.61032 124.71 8.08031 125.37 8.08031L125.38 8.07031Z" fill="#333333"/>
<path d="M12.9601 9.23133V13.9113C12.9601 14.6613 12.3601 15.2613 11.6101 15.2613C10.8601 15.2613 10.2601 14.6613 10.2601 13.9113V9.23133C10.2601 8.60133 9.72012 8.06133 9.06012 8.06133C8.76012 8.06133 8.46012 8.18133 8.22012 8.39133C8.01012 8.63133 7.89012 8.93133 7.89012 9.23133V13.9113C7.89012 14.6613 7.29012 15.2613 6.54012 15.2613C5.79012 15.2613 5.19012 14.6613 5.19012 13.9113V9.23133C5.19012 8.60133 4.65012 8.06133 3.99012 8.06133C3.33012 8.06133 2.82012 8.57133 2.82012 9.23133V13.9413C2.82012 14.6613 2.22012 15.2613 1.47012 15.2613C0.720119 15.2613 0.120117 14.6613 0.120117 13.9113V9.23133C0.120117 7.10133 1.86012 5.36133 3.99012 5.36133C4.98012 5.36133 5.85012 5.72133 6.54012 6.29133C7.23012 5.69133 8.13012 5.36133 9.06012 5.36133C11.2201 5.36133 12.9601 7.10133 12.9601 9.23133Z" fill="#333333"/>
<path d="M26.5401 12.4621C27.2901 12.4621 27.8901 13.0921 27.8901 13.8121C27.8901 14.5321 27.2901 15.1621 26.5401 15.1621C25.1301 15.1621 23.9001 14.5921 23.0001 13.6621C22.1001 14.5921 20.8401 15.1621 19.4601 15.1621C16.7601 15.1621 14.5701 12.9721 14.5701 10.3021C14.5701 7.63211 16.7601 5.41211 19.4601 5.41211C22.1601 5.41211 24.3501 7.60211 24.3501 10.3021C24.3501 11.5021 25.3101 12.4621 26.5401 12.4621ZM21.6501 10.3021C21.6501 9.10211 20.6601 8.11211 19.4601 8.11211C18.2601 8.11211 17.2701 9.10211 17.2701 10.3021C17.2701 11.5021 18.2601 12.4621 19.4601 12.4621C20.6601 12.4621 21.6501 11.5021 21.6501 10.3021Z" fill="#333333"/>
<path d="M29.1602 13.882V9.89203C29.1602 7.37203 31.2302 5.33203 33.7502 5.33203C36.2702 5.33203 38.3401 7.37203 38.3401 9.89203V13.882C38.3401 14.632 37.7102 15.232 36.9902 15.232C36.2702 15.232 35.6402 14.632 35.6402 13.882V9.89203C35.6402 8.87203 34.7702 8.03203 33.7502 8.03203C32.7302 8.03203 31.8602 8.87203 31.8602 9.89203V13.882C31.8602 14.632 31.2602 15.232 30.5102 15.232C29.7602 15.232 29.1602 14.632 29.1602 13.882Z" fill="#333333"/>
<path d="M52.1502 12.5617C52.9002 12.5617 53.5002 13.1917 53.5002 13.9117C53.5002 14.6317 52.9002 15.2617 52.1502 15.2617C50.7402 15.2617 49.5102 14.6917 48.6102 13.7617C47.7102 14.6917 46.4502 15.2617 45.0702 15.2617C42.3702 15.2617 40.1802 13.0717 40.1802 10.4017C40.1802 7.73172 42.3702 5.51172 45.0702 5.51172C47.7702 5.51172 49.9602 7.70172 49.9602 10.4017C49.9602 11.6017 50.9202 12.5617 52.1502 12.5617ZM47.2602 10.4017C47.2602 9.20172 46.2702 8.21172 45.0702 8.21172C43.8702 8.21172 42.8802 9.20172 42.8802 10.4017C42.8802 11.6017 43.8702 12.5617 45.0702 12.5617C46.2702 12.5617 47.2602 11.6017 47.2602 10.4017Z" fill="#333333"/>
<path d="M61.2101 15.4717V14.7517C60.5501 15.0817 59.8001 15.2617 59.0201 15.2617C57.7301 15.2617 56.5001 14.7817 55.5701 13.8517C54.6401 12.9217 54.1301 11.6917 54.1301 10.4017C54.1301 7.70172 56.3201 5.51172 59.0201 5.51172C61.7201 5.51172 63.9101 7.70172 63.9101 10.4017V15.4717C63.9101 18.1417 61.7201 20.3317 59.0201 20.3317C57.5201 20.3317 56.1401 19.6717 55.2101 18.5017C54.7301 17.9317 54.8201 17.0617 55.4201 16.6117C55.9901 16.1317 56.8601 16.2517 57.3101 16.8217C57.7301 17.3317 58.3601 17.6317 59.0201 17.6317C60.2201 17.6317 61.2101 16.6717 61.2101 15.4717ZM61.2101 10.4017C61.2101 9.20172 60.2201 8.21172 59.0201 8.21172C57.8201 8.21172 56.8301 9.20172 56.8301 10.4017C56.8301 10.9717 57.0701 11.5117 57.4601 11.9317C57.8801 12.3517 58.4501 12.5617 59.0201 12.5617C60.2201 12.5617 61.2101 11.6017 61.2101 10.4017Z" fill="#333333"/>
<path d="M65.8801 10.4017C65.8801 7.70172 68.0701 5.51172 70.7701 5.51172C73.4701 5.51172 75.6601 7.70172 75.6601 10.4017C75.6601 11.1517 75.0601 11.7517 74.3101 11.7517H69.0601C69.4801 12.2317 70.0801 12.5617 70.7701 12.5617C71.5201 12.5617 72.1201 13.1917 72.1201 13.9117C72.1201 14.6317 71.5201 15.2617 70.7701 15.2617C68.0701 15.2617 65.8801 13.0717 65.8801 10.4017ZM69.0301 9.05172H72.5101C72.0901 8.54172 71.4901 8.21172 70.7701 8.21172C70.0501 8.21172 69.4501 8.54172 69.0301 9.05172Z" fill="#333333"/>
<path d="M90.0302 9.23133V13.9113C90.0302 14.6613 89.4302 15.2613 88.6802 15.2613C87.9302 15.2613 87.3302 14.6613 87.3302 13.9113V9.23133C87.3302 8.60133 86.7902 8.06133 86.1302 8.06133C85.8302 8.06133 85.5302 8.18133 85.2902 8.39133C85.0802 8.63133 84.9602 8.93133 84.9602 9.23133V13.9113C84.9602 14.6613 84.3602 15.2613 83.6102 15.2613C82.8602 15.2613 82.2602 14.6613 82.2602 13.9113V9.23133C82.2602 8.60133 81.7202 8.06133 81.0602 8.06133C80.4002 8.06133 79.8902 8.57133 79.8902 9.23133V13.9413C79.8902 14.6613 79.2902 15.2613 78.5402 15.2613C77.7902 15.2613 77.1902 14.6613 77.1902 13.9113V9.23133C77.1902 7.10133 78.9302 5.36133 81.0602 5.36133C82.0502 5.36133 82.9202 5.72133 83.6102 6.29133C84.3002 5.69133 85.2002 5.36133 86.1302 5.36133C88.2902 5.36133 90.0302 7.10133 90.0302 9.23133Z" fill="#333333"/>
<path d="M91.5601 10.4017C91.5601 7.70172 93.7501 5.51172 96.4501 5.51172C99.1501 5.51172 101.34 7.70172 101.34 10.4017C101.34 11.1517 100.74 11.7517 99.9901 11.7517H94.7401C95.1601 12.2317 95.7601 12.5617 96.4501 12.5617C97.2001 12.5617 97.8001 13.1917 97.8001 13.9117C97.8001 14.6317 97.2001 15.2617 96.4501 15.2617C93.7501 15.2617 91.5601 13.0717 91.5601 10.4017ZM94.7101 9.05172H98.1901C97.7701 8.54172 97.1701 8.21172 96.4501 8.21172C95.7301 8.21172 95.1301 8.54172 94.7101 9.05172Z" fill="#333333"/>
<path d="M102.87 13.882V9.89203C102.87 7.37203 104.94 5.33203 107.46 5.33203C109.98 5.33203 112.05 7.37203 112.05 9.89203V13.882C112.05 14.632 111.42 15.232 110.7 15.232C109.98 15.232 109.35 14.632 109.35 13.882V9.89203C109.35 8.87203 108.48 8.03203 107.46 8.03203C106.44 8.03203 105.57 8.87203 105.57 9.89203V13.882C105.57 14.632 104.97 15.232 104.22 15.232C103.47 15.232 102.87 14.632 102.87 13.882Z" fill="#333333"/>
<path d="M121.85 7.94117H119.18V12.1512C119.18 12.9012 118.63 13.4612 117.88 13.4612C117.13 13.4612 116.53 12.8612 116.53 12.1112L116.48 7.95117H113.81C113.09 7.95117 112.46 7.35117 112.46 6.60117C112.46 5.85117 113.09 5.25117 113.81 5.25117H116.48V1.80117C116.48 1.08117 117.08 0.451172 117.83 0.451172C118.58 0.451172 119.18 1.08117 119.18 1.80117V5.25117H121.85C122.6 5.25117 123.2 5.85117 123.2 6.60117C123.2 7.35117 122.6 7.95117 121.85 7.95117V7.94117Z" fill="#333333"/>
</svg>
