<svg width="166" height="30" viewBox="0 0 166 30" fill="none" xmlns="http://www.w3.org/2000/svg">
<g clip-path="url(#clip0_834_2753)">
<path d="M39.4238 14.7704C39.4238 14.7107 39.4238 14.5986 39.4843 14.4866V14.2027C39.5447 14.0906 39.5447 14.0309 39.5976 13.9188C39.5976 13.8068 39.658 13.6947 39.7109 13.635C39.7109 13.5229 39.7714 13.4631 39.8242 13.3511C39.8847 13.239 39.9376 13.1793 39.998 13.0672C40.0584 13.0075 40.1113 12.8954 40.1718 12.8431C40.2322 12.7834 40.2851 12.7311 40.3455 12.6713L51.474 1.66782C52.6753 0.427783 54.6698 0.427783 55.9239 1.66782C57.178 2.90786 57.1252 4.82768 55.9239 6.06772L46.9033 14.9273L55.7502 24.5787C56.9514 25.8187 56.8381 27.7983 55.5764 28.9786C54.2618 30.1066 52.3202 29.9945 51.1265 28.7545L40.2247 16.9592C40.1642 16.8994 40.1642 16.7873 40.1113 16.7351C40.0509 16.6753 39.9376 16.5632 39.8847 16.511C39.8242 16.3989 39.8242 16.3391 39.7714 16.2271C39.7109 16.115 39.658 16.0553 39.658 15.9432C39.5976 15.8312 39.5976 15.7714 39.5447 15.6594C39.5447 15.5473 39.4843 15.4875 39.4843 15.3755C39.4843 15.2634 39.4843 15.1514 39.4238 15.0916V14.7555V14.7704Z" fill="#333333"/>
<path d="M115.654 26.8196C114.649 27.8654 113.259 28.4331 111.77 28.4331C110.282 28.4331 108.945 27.8654 107.887 26.8196C106.829 25.7738 106.301 24.4516 106.301 23.0248C106.301 21.598 106.875 20.1787 107.887 19.1851C108.945 18.1393 110.335 17.5716 111.77 17.5716C112.873 17.5716 113.387 17.6089 114.301 18.1767C114.112 16.3241 113.788 14.8674 112.345 13.59C110.856 12.2603 109.398 12.0512 107.328 12.0661C106.029 12.0811 104.268 13.209 103.332 14.1727V27.1035C103.332 28.5228 102.13 29.7105 100.695 29.7105C99.2594 29.7105 98.0581 28.5228 98.0581 27.1035V19.0283L95.905 21.2842C95.1872 22.091 93.6611 21.9043 92.8452 21.1946C92.0746 20.5298 92.0142 18.9984 92.7319 18.2439C92.7319 18.2439 96.4263 14.21 98.0581 12.4097V10.7066H94.8926C93.4043 10.7066 92.2559 9.57109 92.2559 8.09948C92.2559 6.62786 93.4043 5.49241 94.8926 5.49241H98.0581V2.78822C98.0581 1.3689 99.2065 0.181152 100.695 0.181152C102.183 0.181152 103.332 1.3689 103.332 2.78822V8.5701C104.389 8.18912 105.606 7.75585 106.754 7.65874C109.821 7.51681 113.055 8.31611 115.306 10.3555C117.558 12.3948 118.532 15.6368 118.676 18.6249C118.819 21.471 117.905 24.1752 116.084 26.3565L115.654 26.8271V26.8196ZM111.77 24.6383C112.201 24.6383 112.632 24.4964 112.919 24.1677C113.017 24.0706 113.108 23.981 113.161 23.8838C113.349 23.6448 113.448 23.3161 113.448 23.0322C113.448 22.5616 113.259 22.1807 112.972 21.8445C112.639 21.5606 112.254 21.3739 111.77 21.3739C111.34 21.3739 110.955 21.5606 110.622 21.8445C110.335 22.1732 110.146 22.5542 110.146 23.0322C110.146 23.458 110.335 23.839 110.622 24.1677C110.955 24.4516 111.34 24.6383 111.77 24.6383Z" fill="#333333"/>
<path d="M122.151 14.7704C122.151 14.7107 122.151 14.5986 122.211 14.4866V14.2027C122.272 14.0906 122.272 14.0309 122.325 13.9188C122.325 13.8068 122.385 13.6947 122.438 13.635C122.438 13.5229 122.498 13.4631 122.551 13.3511C122.612 13.239 122.665 13.1793 122.725 13.0672C122.786 13.0075 122.838 12.8954 122.899 12.8431C122.959 12.7834 123.012 12.7311 123.073 12.6713L134.201 1.66782C135.402 0.427783 137.397 0.427783 138.651 1.66782C139.905 2.90786 139.852 4.82768 138.651 6.06772L129.63 14.9273L138.477 24.5787C139.678 25.8187 139.565 27.7983 138.303 28.9786C136.989 30.1066 135.047 29.9945 133.854 28.7545L122.952 16.9592C122.891 16.8994 122.891 16.7873 122.838 16.7351C122.778 16.6753 122.665 16.5632 122.612 16.511C122.551 16.3989 122.551 16.3391 122.498 16.2271C122.438 16.115 122.385 16.0553 122.385 15.9432C122.325 15.8312 122.325 15.7714 122.272 15.6594C122.272 15.5473 122.211 15.4875 122.211 15.3755C122.211 15.2634 122.211 15.1514 122.151 15.0916V14.7555V14.7704Z" fill="#333333"/>
<path d="M7.06596 7.48707H2.38942C1.25618 7.48707 0.334473 6.47113 0.334473 5.06675C0.334473 3.66237 1.25618 2.6539 2.38942 2.6539H7.99523C8.64496 2.6539 9.18136 2.6539 9.89908 2.6539C11.4932 2.6539 12.7246 3.87153 12.7246 5.44773V20.5448C12.7246 21.5085 13.1326 22.4273 13.805 23.137C14.5227 23.7943 15.452 24.2052 16.4266 24.2052C18.4815 24.2052 20.1285 22.5244 20.1285 20.5448V19.118C20.1285 17.5941 21.4129 16.3242 22.9541 16.3242C24.4953 16.3242 25.7797 17.5941 25.7797 19.118V20.5448C25.7797 25.632 21.6169 29.8003 16.419 29.8003C13.9486 29.8003 11.5838 28.8367 9.83864 27.0513C8.04055 25.3257 7.06596 22.9876 7.06596 20.5448V7.4796V7.48707ZM28.3257 11.1698C29.8669 11.1698 31.1513 12.3875 31.1513 13.9637C31.1513 18.2814 27.6004 21.7923 23.2336 21.7923C21.6924 21.7923 20.4081 20.5224 20.4081 18.9985C20.4081 17.4746 21.6924 16.2047 23.2336 16.2047C24.4651 16.2047 25.4926 15.1888 25.4926 13.9711C25.4926 12.3949 26.7769 11.1773 28.3181 11.1773L28.3257 11.1698ZM23.3772 5.11157C23.3772 2.67631 25.3641 0.71167 27.8271 0.71167C30.29 0.71167 32.2769 2.67631 32.2769 5.11157C32.2769 7.54683 30.29 9.51147 27.8271 9.51147C25.3641 9.51147 23.3772 7.54683 23.3772 5.11157ZM26.5503 5.11157C26.5503 5.73906 27.1093 6.36655 27.8195 6.36655C28.5297 6.36655 29.0887 5.73906 29.0887 5.11157C29.0887 4.40191 28.5297 3.85659 27.8195 3.85659C27.1093 3.85659 26.5503 4.40938 26.5503 5.11157Z" fill="#333333"/>
<path d="M74.7057 7.30018L79.2387 2.75835C80.5835 1.48843 82.7291 1.48843 84.0135 2.75835C85.3583 4.02827 85.3583 6.14978 84.0135 7.47946L74.7057 16.6827C73.9729 17.4073 73.6027 18.3186 73.6027 19.2897C73.6027 20.2608 73.9729 21.1647 74.7057 21.8968C76.111 23.2862 78.4379 23.2862 79.9111 21.8968C81.1955 20.5671 83.3411 20.5671 84.6859 21.8968C85.9702 23.1667 85.9702 25.2882 84.6859 26.5582C80.5835 30.6144 73.9653 30.6144 69.9234 26.5582C67.9667 24.6234 66.8636 22.0761 66.8636 19.2897C66.8636 16.5034 67.9667 13.9635 69.9234 12.0213" fill="#333333"/>
<path d="M70.5732 12.7832L65.9571 7.23289C64.7785 5.82104 64.99 3.73687 66.4179 2.57154C67.8458 1.4062 69.9537 1.61536 71.1322 3.02721L75.2648 8.00231" fill="#333333"/>
<path d="M155.06 7.30018L159.593 2.75835C160.938 1.48843 163.084 1.48843 164.368 2.75835C165.713 4.02827 165.713 6.14978 164.368 7.47946L155.06 16.6827C154.327 17.4073 153.957 18.3186 153.957 19.2897C153.957 20.2608 154.327 21.1647 155.06 21.8968C156.465 23.2862 158.792 23.2862 160.266 21.8968C161.55 20.5671 163.696 20.5671 165.04 21.8968C166.325 23.1667 166.325 25.2882 165.04 26.5582C160.938 30.6144 154.32 30.6144 150.278 26.5582C148.321 24.6234 147.218 22.0761 147.218 19.2897C147.218 16.5034 148.321 13.9635 150.278 12.0213" fill="#333333"/>
<path d="M150.928 12.7832L146.312 7.23289C145.133 5.82104 145.345 3.73687 146.772 2.57154C148.2 1.4062 150.308 1.61536 151.487 3.02721L155.619 8.00231" fill="#333333"/>
</g>
<defs>
<clipPath id="clip0_834_2753">
<rect width="166" height="30" fill="white"/>
</clipPath>
</defs>
</svg>
