<svg width="276" height="114" viewBox="0 0 276 114" fill="none" xmlns="http://www.w3.org/2000/svg">
<path d="M64.3341 116.83L33.4386 85.9348C25.9726 78.4688 13.8108 78.4001 6.42868 85.7823C-0.953452 93.1644 -0.884758 105.326 6.58124 112.792L56.1417 162.353C66.6531 172.864 82.8688 172.956 93.262 162.562L192.945 62.8793C199.332 56.4928 208.08 53.1966 217.187 52.8817C226.298 53.2506 235.084 56.6947 241.543 63.1538C255.125 76.735 254.907 98.6634 241.818 111.752L232.42 121.15C222.343 131.227 222.462 148.103 232.63 158.27C242.797 168.438 259.697 168.533 269.75 158.48L279.148 149.082C312.707 115.523 312.739 60.5278 278.454 26.2431C262.171 9.96037 240.165 0.72723 216.893 0.913249C193.594 0.439755 171.715 9.44945 155.615 25.5493L64.3341 116.83V116.83Z" fill="url(#paint0_linear_838_2901)"/>
<defs>
<linearGradient id="paint0_linear_838_2901" x1="82.6055" y1="9.60547" x2="250.615" y2="177.615" gradientUnits="userSpaceOnUse">
<stop stop-color="white"/>
<stop offset="0.82" stop-color="#F284B2"/>
</linearGradient>
</defs>
</svg>
